<svg xmlns="http://www.w3.org/2000/svg" xmlns:xlink="http://www.w3.org/1999/xlink" id="processonSvg1000" viewBox="34.0 66.0 1151.0 516.0" width="1151.0" height="516.0"><defs id="ProcessOnDefs1001"><marker id="ProcessOnMarker1031" markerUnits="userSpaceOnUse" orient="auto" markerWidth="16.23606797749979" markerHeight="10.550836550532098" viewBox="-1.0 -1.3763819204711736 16.23606797749979 10.550836550532098" refX="-1.0" refY="3.8990363547948754"><path id="ProcessOnPath1032" d="M12.0 3.8990363547948754L0.0 7.798072709589751V0.0Z" stroke="#323232" stroke-width="2.0" fill="#323232" transform="matrix(1.0,0.0,0.0,1.0,0.0,0.0)"/></marker><marker id="ProcessOnMarker1038" markerUnits="userSpaceOnUse" orient="auto" markerWidth="16.23606797749979" markerHeight="10.550836550532098" viewBox="-1.0 -1.3763819204711736 16.23606797749979 10.550836550532098" refX="-1.0" refY="3.8990363547948754"><path id="ProcessOnPath1039" d="M12.0 3.8990363547948754L0.0 7.798072709589751V0.0Z" stroke="#323232" stroke-width="2.0" fill="#323232" transform="matrix(1.0,0.0,0.0,1.0,0.0,0.0)"/></marker><marker id="ProcessOnMarker1045" markerUnits="userSpaceOnUse" orient="auto" markerWidth="16.23606797749979" markerHeight="10.550836550532098" viewBox="-1.0 -1.3763819204711736 16.23606797749979 10.550836550532098" refX="-1.0" refY="3.8990363547948754"><path id="ProcessOnPath1046" d="M12.0 3.8990363547948754L0.0 7.798072709589751V0.0Z" stroke="#323232" stroke-width="2.0" fill="#323232" transform="matrix(1.0,0.0,0.0,1.0,0.0,0.0)"/></marker><marker id="ProcessOnMarker1049" markerUnits="userSpaceOnUse" orient="auto" markerWidth="16.23606797749979" markerHeight="10.550836550532098" viewBox="-1.0 -1.3763819204711736 16.23606797749979 10.550836550532098" refX="-1.0" refY="3.8990363547948754"><path id="ProcessOnPath1050" d="M12.0 3.8990363547948754L0.0 7.798072709589751V0.0Z" stroke="#323232" stroke-width="2.0" fill="#323232" transform="matrix(1.0,0.0,0.0,1.0,0.0,0.0)"/></marker><marker id="ProcessOnMarker1056" markerUnits="userSpaceOnUse" orient="auto" markerWidth="16.23606797749979" markerHeight="10.550836550532098" viewBox="-1.0 -1.3763819204711736 16.23606797749979 10.550836550532098" refX="-1.0" refY="3.8990363547948754"><path id="ProcessOnPath1057" d="M12.0 3.8990363547948754L0.0 7.798072709589751V0.0Z" stroke="#323232" stroke-width="2.0" fill="#323232" transform="matrix(1.0,0.0,0.0,1.0,0.0,0.0)"/></marker><marker id="ProcessOnMarker1063" markerUnits="userSpaceOnUse" orient="auto" markerWidth="16.23606797749979" markerHeight="10.550836550532098" viewBox="-1.0 -1.3763819204711736 16.23606797749979 10.550836550532098" refX="-1.0" refY="3.8990363547948754"><path id="ProcessOnPath1064" d="M12.0 3.8990363547948754L0.0 7.798072709589751V0.0Z" stroke="#323232" stroke-width="2.0" fill="#323232" transform="matrix(1.0,0.0,0.0,1.0,0.0,0.0)"/></marker><marker id="ProcessOnMarker1070" markerUnits="userSpaceOnUse" orient="auto" markerWidth="16.23606797749979" markerHeight="10.550836550532098" viewBox="-1.0 -1.3763819204711736 16.23606797749979 10.550836550532098" refX="-1.0" refY="3.8990363547948754"><path id="ProcessOnPath1071" d="M12.0 3.8990363547948754L0.0 7.798072709589751V0.0Z" stroke="#323232" stroke-width="2.0" fill="#323232" transform="matrix(1.0,0.0,0.0,1.0,0.0,0.0)"/></marker><marker id="ProcessOnMarker1077" markerUnits="userSpaceOnUse" orient="auto" markerWidth="16.23606797749979" markerHeight="10.550836550532098" viewBox="-1.0 -1.3763819204711736 16.23606797749979 10.550836550532098" refX="-1.0" refY="3.8990363547948754"><path id="ProcessOnPath1078" d="M12.0 3.8990363547948754L0.0 7.798072709589751V0.0Z" stroke="#323232" stroke-width="2.0" fill="#323232" transform="matrix(1.0,0.0,0.0,1.0,0.0,0.0)"/></marker></defs><g id="ProcessOnG1002"><path id="ProcessOnPath1003" d="M34.0 66.0H1185.0V582.0H34.0V66.0Z" fill="none"/><g id="ProcessOnG1004"><g id="ProcessOnG1005" transform="matrix(1.0,0.0,0.0,1.0,54.0,86.0)" opacity="1.0"><path id="ProcessOnPath1006" d="M0.0 0.0L241.0 0.0L241.0 54.0L0.0 54.0Z" stroke="#323232" stroke-width="2.0" stroke-dasharray="none" fill="#ffffed"/><g id="ProcessOnG1007" transform="matrix(1.0,0.0,0.0,1.0,10.0,17.625)"><text id="ProcessOnText1008" fill="#323232" font-size="15" x="109.5" y="15.375" font-family="Arial" font-weight="normal" font-style="normal" text-decoration="none" family="Arial" text-anchor="middle" size="15">resolveInstanceMethod:</text></g></g><g id="ProcessOnG1009" transform="matrix(1.0,0.0,0.0,1.0,331.5,175.0)" opacity="1.0"><path id="ProcessOnPath1010" d="M0.0 0.0L241.0 0.0L241.0 54.0L0.0 54.0Z" stroke="#323232" stroke-width="2.0" stroke-dasharray="none" fill="#ffffed"/><g id="ProcessOnG1011" transform="matrix(1.0,0.0,0.0,1.0,10.0,17.625)"><text id="ProcessOnText1012" fill="#323232" font-size="15" x="109.5" y="15.375" font-family="Arial" font-weight="normal" font-style="normal" text-decoration="none" family="Arial" text-anchor="middle" size="15">forwardingTargetForSelector:</text></g></g><g id="ProcessOnG1013" transform="matrix(1.0,0.0,0.0,1.0,609.0,252.0)" opacity="1.0"><path id="ProcessOnPath1014" d="M0.0 0.0L241.0 0.0L241.0 54.0L0.0 54.0Z" stroke="#323232" stroke-width="2.0" stroke-dasharray="none" fill="#ffffed"/><g id="ProcessOnG1015" transform="matrix(1.0,0.0,0.0,1.0,10.0,17.625)"><text id="ProcessOnText1016" fill="#323232" font-size="15" x="109.5" y="15.375" font-family="Arial" font-weight="normal" font-style="normal" text-decoration="none" family="Arial" text-anchor="middle" size="15">methodSignatureForSelector:</text></g></g><g id="ProcessOnG1017" transform="matrix(1.0,0.0,0.0,1.0,609.0,391.0)" opacity="1.0"><path id="ProcessOnPath1018" d="M0.0 0.0L241.0 0.0L241.0 54.0L0.0 54.0Z" stroke="#323232" stroke-width="2.0" stroke-dasharray="none" fill="#ffffed"/><g id="ProcessOnG1019" transform="matrix(1.0,0.0,0.0,1.0,10.0,17.625)"><text id="ProcessOnText1020" fill="#323232" font-size="15" x="109.5" y="15.375" font-family="Arial" font-weight="normal" font-style="normal" text-decoration="none" family="Arial" text-anchor="middle" size="15">forwardInvocation:</text></g></g><g id="ProcessOnG1021" transform="matrix(1.0,0.0,0.0,1.0,924.0,391.0)" opacity="1.0"><path id="ProcessOnPath1022" d="M0.0 0.0L241.0 0.0L241.0 54.0L0.0 54.0Z" stroke="#323232" stroke-width="2.0" stroke-dasharray="none" fill="#ffffed"/><g id="ProcessOnG1023" transform="matrix(1.0,0.0,0.0,1.0,10.0,17.625)"><text id="ProcessOnText1024" fill="#323232" font-size="15" x="109.5" y="15.375" font-family="Arial" font-weight="normal" font-style="normal" text-decoration="none" family="Arial" text-anchor="middle" size="15">消息未处理</text></g></g><g id="ProcessOnG1025" transform="matrix(1.0,0.0,0.0,1.0,54.0,514.0)" opacity="1.0"><path id="ProcessOnPath1026" d="M0.0 0.0L796.0 0.0L796.0 48.0L0.0 48.0Z" stroke="#323232" stroke-width="2.0" stroke-dasharray="none" fill="#ffffed"/><g id="ProcessOnG1027" transform="matrix(1.0,0.0,0.0,1.0,10.0,14.625)"><text id="ProcessOnText1028" fill="#323232" font-size="15" x="387.0" y="15.375" font-family="Arial" font-weight="normal" font-style="normal" text-decoration="none" family="Arial" text-anchor="middle" size="15">消息已处理</text></g></g><g id="ProcessOnG1029"><path id="ProcessOnPath1030" d="M452.0 229.0L452.0 371.5L452.0 371.5L452.0 498.7639320225002" stroke="#323232" stroke-width="2.0" stroke-dasharray="none" fill="none" marker-end="url(#ProcessOnMarker1031)"/><g id="ProcessOnG1033" transform="matrix(1.0,0.0,0.0,1.0,452.0,355.13196601125014)"><path id="ProcessOnPath1034" d="M0 0H87.0V17.5H0Z" fill="#fff" transform="matrix(1.0,0.0,0.0,1.0,-43.5,0.0)"/><text id="ProcessOnText1035" fill="#323232" font-size="14" x="0.0" y="14.350000000000001" font-family="Arial" font-weight="normal" font-style="normal" text-decoration="none" family="Arial" text-anchor="middle" size="14">返回备用reciver</text></g></g><g id="ProcessOnG1036"><path id="ProcessOnPath1037" d="M174.5 140.0L174.5 324.5L174.5 324.5L174.5 493.7639320225002" stroke="#323232" stroke-width="2.0" stroke-dasharray="none" fill="none" marker-end="url(#ProcessOnMarker1038)"/><g id="ProcessOnG1040" transform="matrix(1.0,0.0,0.0,1.0,174.5,308.13196601125014)"><path id="ProcessOnPath1041" d="M0 0H55.0V17.5H0Z" fill="#fff" transform="matrix(1.0,0.0,0.0,1.0,-27.5,0.0)"/><text id="ProcessOnText1042" fill="#323232" font-size="14" x="0.0" y="14.350000000000001" font-family="Arial" font-weight="normal" font-style="normal" text-decoration="none" family="Arial" text-anchor="middle" size="14">有消息处理</text></g></g><g id="ProcessOnG1043"><path id="ProcessOnPath1044" d="M729.5 445.0L729.5 477.5L729.5 477.5L729.5 494.7639320225002" stroke="#323232" stroke-width="2.0" stroke-dasharray="none" fill="none" marker-end="url(#ProcessOnMarker1045)"/></g><g id="ProcessOnG1047"><path id="ProcessOnPath1048" d="M729.5 306.0L729.5 348.5L729.5 348.5L729.5 375.7639320225002" stroke="#323232" stroke-width="2.0" stroke-dasharray="none" fill="none" marker-end="url(#ProcessOnMarker1049)"/><g id="ProcessOnG1051" transform="matrix(1.0,0.0,0.0,1.0,729.5,332.13196601125014)"><path id="ProcessOnPath1052" d="M0 0H130.0V17.5H0Z" fill="#fff" transform="matrix(1.0,0.0,0.0,1.0,-65.0,0.0)"/><text id="ProcessOnText1053" fill="#323232" font-size="14" x="0.0" y="14.350000000000001" font-family="Arial" font-weight="normal" font-style="normal" text-decoration="none" family="Arial" text-anchor="middle" size="14">返回methodSignature</text></g></g><g id="ProcessOnG1054"><path id="ProcessOnPath1055" d="M572.5 202.0L729.5 202.0L729.5 236.7639320225002" stroke="#323232" stroke-width="2.0" stroke-dasharray="none" fill="none" marker-end="url(#ProcessOnMarker1056)"/><g id="ProcessOnG1058" transform="matrix(1.0,0.0,0.0,1.0,668.3819660112501,193.25)"><path id="ProcessOnPath1059" d="M0 0H36.0V17.5H0Z" fill="#fff" transform="matrix(1.0,0.0,0.0,1.0,-18.0,0.0)"/><text id="ProcessOnText1060" fill="#323232" font-size="14" x="0.0" y="14.350000000000001" font-family="Arial" font-weight="normal" font-style="normal" text-decoration="none" family="Arial" text-anchor="middle" size="14">返回nil</text></g></g><g id="ProcessOnG1061"><path id="ProcessOnPath1062" d="M295.0 113.0L452.0 113.0L452.0 159.7639320225002" stroke="#323232" stroke-width="2.0" stroke-dasharray="none" fill="none" marker-end="url(#ProcessOnMarker1063)"/><g id="ProcessOnG1065" transform="matrix(1.0,0.0,0.0,1.0,396.8819660112501,104.25)"><path id="ProcessOnPath1066" d="M0 0H55.0V17.5H0Z" fill="#fff" transform="matrix(1.0,0.0,0.0,1.0,-27.5,0.0)"/><text id="ProcessOnText1067" fill="#323232" font-size="14" x="0.0" y="14.350000000000001" font-family="Arial" font-weight="normal" font-style="normal" text-decoration="none" family="Arial" text-anchor="middle" size="14">无消息处理</text></g></g><g id="ProcessOnG1068"><path id="ProcessOnPath1069" d="M850.0 279.0L1044.5 279.0L1044.5 375.7639320225002" stroke="#323232" stroke-width="2.0" stroke-dasharray="none" fill="none" marker-end="url(#ProcessOnMarker1070)"/><g id="ProcessOnG1072" transform="matrix(1.0,0.0,0.0,1.0,995.6319660112501,270.25)"><path id="ProcessOnPath1073" d="M0 0H36.0V17.5H0Z" fill="#fff" transform="matrix(1.0,0.0,0.0,1.0,-18.0,0.0)"/><text id="ProcessOnText1074" fill="#323232" font-size="14" x="0.0" y="14.350000000000001" font-family="Arial" font-weight="normal" font-style="normal" text-decoration="none" family="Arial" text-anchor="middle" size="14">返回nil</text></g></g><g id="ProcessOnG1075"><path id="ProcessOnPath1076" d="M850.0 418.0L887.0 418.0L887.0 418.0L908.7639320225002 418.0" stroke="#323232" stroke-width="2.0" stroke-dasharray="none" fill="none" marker-end="url(#ProcessOnMarker1077)"/></g></g></g></svg>